<?xml version="1.0" standalone="no"?>
<!DOCTYPE svg PUBLIC "-//W3C//DTD SVG 20010904//EN"
 "http://www.w3.org/TR/2001/REC-SVG-20010904/DTD/svg10.dtd">
<svg version="1.0" xmlns="http://www.w3.org/2000/svg"
 width="300.000000pt" height="241.000000pt" viewBox="0 0 300.000000 241.000000"
 preserveAspectRatio="xMidYMid meet">
<metadata>
Created by potrace 1.10, written by Peter Selinger 2001-2011
</metadata>
<g transform="translate(0.000000,241.000000) scale(0.100000,-0.100000)"
fill="#f5204e" stroke="none">
<path d="M1938 2112 l-448 -227 -172 89 c-270 137 -706 356 -712 356 -3 0 -6
-164 -6 -364 0 -201 -3 -367 -7 -369 -5 -2 -105 21 -223 53 -118 32 -231 61
-250 65 -25 5 80 -73 365 -273 l400 -280 5 311 c3 215 8 311 16 310 6 -1 138
-76 293 -167 156 -91 287 -166 293 -166 5 0 91 48 191 107 268 157 399 233
403 233 2 0 5 -142 6 -315 l3 -315 397 277 c218 153 395 279 393 281 -3 3
-170 -39 -355 -90 -41 -11 -90 -24 -107 -28 l-33 -8 -2 374 -3 373 -447 -227z"/>
<path d="M1064 1320 c3 -14 13 -62 22 -107 15 -75 19 -83 43 -88 33 -7 221
-33 221 -30 0 1 -53 46 -117 100 -65 55 -120 102 -123 105 -3 3 -15 14 -28 25
l-23 19 5 -24z"/>
<path d="M1805 1242 c-60 -52 -125 -107 -143 -122 l-33 -27 98 13 c136 19 151
23 157 42 10 36 37 184 34 186 -2 2 -52 -39 -113 -92z"/>
<path d="M2405 1096 c-204 -107 -608 -316 -772 -399 l-143 -72 -92 47 c-51 26
-178 92 -283 146 -514 266 -663 342 -669 342 -3 0 -6 -78 -6 -172 l1 -173 67
-45 c37 -26 273 -189 525 -364 l458 -317 307 212 c169 117 407 282 530 367
l222 155 0 174 c0 95 -1 173 -2 173 -2 0 -66 -34 -143 -74z"/>
</g>
</svg>
